<?xml version="1.0" standalone="no"?>
<!DOCTYPE svg PUBLIC "-//W3C//DTD SVG 20010904//EN"
 "http://www.w3.org/TR/2001/REC-SVG-20010904/DTD/svg10.dtd">
<svg version="1.0" xmlns="http://www.w3.org/2000/svg"
 width="346.000000pt" height="346.000000pt" viewBox="0 0 346.000000 346.000000"
 preserveAspectRatio="xMidYMid meet">
<metadata>
Created by potrace 1.11, written by Peter Selinger 2001-2013
</metadata>
<g transform="translate(0.000000,346.000000) scale(0.100000,-0.100000)"
fill="#000000" stroke="none">
<path d="M1717 2650 c-48 -38 -30 -80 43 -100 45 -12 57 -25 40 -45 -14 -17
-66 -20 -75 -5 -8 13 -45 13 -45 0 0 -15 56 -40 90 -40 50 0 85 50 62 88 -5 7
-30 21 -57 30 -55 20 -66 36 -35 52 16 9 27 8 50 -4 33 -16 52 -3 29 20 -26
26 -72 27 -102 4z"/>
<path d="M380 2560 c0 -82 3 -100 15 -100 12 0 15 14 15 68 l0 67 21 -32 c26
-41 38 -41 67 0 l22 32 0 -68 c0 -53 3 -67 15 -67 12 0 15 18 15 100 0 115
-10 126 -55 58 l-28 -42 -28 35 c-16 19 -29 37 -29 42 0 4 -7 7 -15 7 -12 0
-15 -18 -15 -100z"/>
<path d="M620 2560 l0 -100 60 0 c47 0 60 3 60 15 0 11 -12 15 -45 15 -41 0
-45 2 -45 24 0 21 5 25 38 28 25 2 37 8 37 18 0 10 -12 16 -37 18 -33 3 -38 7
-38 28 0 22 4 24 45 24 33 0 45 4 45 15 0 12 -13 15 -60 15 l-60 0 0 -100z"/>
<path d="M784 2647 c-3 -8 -4 -52 -2 -98 2 -67 6 -84 18 -84 10 0 16 12 18 38
2 21 8 37 16 37 21 0 44 -24 48 -50 2 -14 11 -26 21 -28 16 -3 17 1 10 35 -4
21 -6 58 -5 82 3 59 -17 81 -75 81 -27 0 -46 -5 -49 -13z m84 -26 c23 -14 10
-46 -21 -49 -24 -3 -27 0 -27 27 0 32 19 41 48 22z"/>
<path d="M970 2560 c0 -82 3 -100 15 -100 11 0 15 11 15 40 0 32 4 40 19 40
22 0 36 -16 45 -52 3 -16 12 -28 20 -28 19 0 27 12 17 24 -14 18 -20 70 -10
89 24 43 -15 87 -77 87 l-44 0 0 -100z m85 40 c0 -20 -6 -26 -27 -28 -25 -3
-28 0 -28 28 0 28 3 31 28 28 21 -2 27 -8 27 -28z"/>
<path d="M1154 2647 c-2 -7 -4 -52 -2 -98 l3 -84 64 -3 c48 -2 62 0 59 10 -3
7 -23 14 -46 16 -37 3 -42 6 -42 27 0 20 6 24 38 27 25 2 37 8 37 18 0 10 -12
16 -37 18 -33 3 -38 7 -38 28 0 22 4 24 46 24 32 0 44 4 42 13 -7 18 -117 22
-124 4z"/>
<path d="M1326 2651 c-4 -5 -4 -49 -2 -98 l5 -88 61 -3 c49 -2 60 0 60 13 0
11 -11 15 -45 15 l-44 0 -3 82 c-3 76 -15 107 -32 79z"/>
<path d="M1490 2560 l0 -100 60 0 c47 0 60 3 60 15 0 11 -12 15 -45 15 l-45 0
0 85 c0 69 -3 85 -15 85 -12 0 -15 -18 -15 -100z"/>
<path d="M1614 2649 c-3 -6 -1 -16 5 -22 8 -8 6 -16 -6 -29 -13 -15 -14 -18
-2 -18 23 0 39 21 39 52 0 28 -22 39 -36 17z"/>
<path d="M0 1570 l0 -830 1730 0 1730 0 0 830 0 830 -1730 0 -1730 0 0 -830z
m712 634 c68 -34 88 -73 49 -94 -15 -7 -29 -4 -63 15 -77 44 -178 25 -178 -34
0 -33 29 -50 120 -71 110 -25 160 -71 160 -147 0 -39 -5 -51 -38 -83 -37 -37
-91 -60 -143 -60 -77 0 -193 63 -187 102 6 39 31 43 76 13 72 -48 186 -44 213
7 24 44 -15 79 -113 99 -97 21 -154 61 -164 116 -22 118 141 202 268 137z
m1314 -9 c51 -30 88 -75 109 -134 42 -119 -15 -254 -129 -307 -93 -43 -174
-27 -251 51 -76 76 -97 181 -54 275 60 134 205 185 325 115z m1040 4 c48 -23
68 -48 58 -73 -10 -26 -48 -29 -85 -7 -41 25 -126 28 -169 6 -41 -21 -81 -78
-87 -123 -16 -116 95 -210 212 -181 l45 11 0 49 0 48 -56 3 c-64 3 -88 23 -68
55 9 15 28 19 96 21 113 4 118 -1 118 -114 0 -70 -3 -87 -19 -103 -55 -55
-156 -74 -238 -47 -203 67 -235 334 -54 443 29 18 65 34 80 36 47 9 123 -2
167 -24z m-1858 -18 c5 -35 -22 -51 -87 -51 l-56 0 0 -191 c-1 -194 -4 -209
-40 -209 -32 0 -34 17 -35 208 l-1 192 -55 0 c-63 0 -94 13 -94 38 0 39 18 43
195 40 l170 -3 3 -24z m329 3 c66 -50 83 -132 39 -196 -22 -33 -22 -35 -6 -56
10 -12 21 -43 25 -69 4 -26 11 -53 17 -60 5 -7 8 -22 6 -35 -2 -18 -10 -24
-35 -26 -40 -4 -58 22 -68 96 -6 44 -11 55 -35 67 -16 8 -47 15 -70 15 l-40 0
0 -83 c0 -51 -5 -88 -12 -95 -18 -18 -46 -14 -58 7 -15 29 -13 434 2 449 8 8
46 12 107 12 86 0 97 -2 128 -26z m828 -60 c33 -45 84 -114 113 -155 l52 -74
0 142 c0 115 3 144 16 157 18 19 20 19 45 6 18 -10 19 -23 19 -228 0 -225 -3
-242 -41 -242 -12 0 -59 58 -131 158 l-113 157 -3 -144 c-1 -86 -7 -150 -14
-158 -14 -17 -33 -16 -52 3 -24 24 -24 425 0 449 27 26 46 14 109 -71z m373
-526 c74 -37 88 -54 78 -91 -10 -41 -44 -44 -107 -9 -70 39 -111 47 -164 32
-56 -16 -88 -49 -83 -86 4 -38 40 -57 163 -89 154 -39 225 -100 225 -194 0
-118 -137 -213 -284 -198 -103 10 -230 87 -224 135 4 35 37 55 64 39 159 -91
233 -98 314 -30 61 51 30 108 -74 138 -28 8 -83 23 -123 35 -110 31 -163 86
-163 171 0 156 206 236 378 147z m-1870 6 c21 -14 22 -22 22 -162 l0 -146 163
162 c131 130 168 161 183 156 73 -27 63 -58 -65 -188 l-108 -111 108 -140 c60
-77 109 -149 109 -161 0 -11 -9 -29 -20 -39 -36 -33 -61 -13 -170 131 l-102
136 -49 -48 -49 -48 0 -77 c0 -63 -3 -79 -20 -94 -26 -23 -68 -13 -80 21 -6
14 -10 148 -10 300 l0 275 25 24 c28 29 33 30 63 9z m672 -4 c19 -19 20 -33
20 -310 0 -277 -1 -291 -20 -310 -24 -24 -47 -25 -72 -3 -17 15 -18 38 -18
314 0 257 2 300 16 313 21 22 50 20 74 -4z m446 0 c69 -24 115 -58 159 -118
121 -167 58 -401 -134 -493 -63 -31 -248 -40 -274 -14 -15 15 -17 49 -17 320
0 279 1 305 18 314 31 19 187 13 248 -9z"/>
<path d="M1833 2119 c-38 -24 -73 -92 -73 -140 0 -59 38 -121 92 -147 62 -31
109 -23 160 27 72 72 71 170 -2 243 -34 35 -42 38 -91 38 -37 0 -64 -7 -86
-21z"/>
<path d="M1370 2065 l0 -65 59 0 c51 0 62 3 75 22 9 12 16 32 16 43 0 11 -7
31 -16 43 -13 19 -24 22 -75 22 l-59 0 0 -65z"/>
<path d="M1829 1504 c0 -5 -1 -105 -2 -221 l-2 -213 51 0 c75 0 150 41 188
104 90 144 -3 322 -175 334 -32 2 -59 0 -60 -4z"/>
</g>
</svg>
