<svg id="change-programs" xmlns="http://www.w3.org/2000/svg" xmlns:xlink="http://www.w3.org/1999/xlink" viewBox="0 0 50 50" version="1.1" width="50" height="50" style="fill: rgb(0, 0, 0);">
<g id="surface1">
<path style=" " d="M 3 0 C 1.347656 0 0 1.347656 0 3 L 0 27 C 0 28.652344 1.347656 30 3 30 L 17 30 L 17 28 L 3 28 C 2.449219 28 2 27.550781 2 27 L 2 7 L 32 7 L 32 19 L 34 19 L 34 3 C 34 1.347656 32.652344 0 31 0 Z M 8 12 C 6.839844 12 6 12.839844 6 14 L 6 20 C 6 21.160156 6.839844 22 8 22 L 13 22 C 14.160156 22 15 21.160156 15 20 L 15 14 C 15 12.839844 14.160156 12 13 12 Z M 21 12 C 19.839844 12 19 12.839844 19 14 L 19 19.125 C 19.320313 19.046875 19.648438 19 20 19 L 28 19 L 28 14 C 28 12.839844 27.160156 12 26 12 Z M 20 20 C 19.476563 20 18.941406 20.183594 18.5625 20.5625 C 18.183594 20.941406 18 21.476563 18 22 L 18 48 C 18 48.144531 18.007813 48.273438 18.03125 48.40625 C 18.058594 48.550781 18.101563 48.675781 18.15625 48.8125 C 18.199219 48.921875 18.25 49.027344 18.3125 49.125 C 18.453125 49.347656 18.625 49.542969 18.84375 49.6875 C 18.851563 49.691406 18.867188 49.683594 18.875 49.6875 C 18.972656 49.75 19.074219 49.800781 19.1875 49.84375 C 19.324219 49.898438 19.449219 49.941406 19.59375 49.96875 C 19.726563 49.992188 19.855469 50 20 50 L 48 50 C 48.144531 50 48.273438 49.992188 48.40625 49.96875 C 48.550781 49.941406 48.675781 49.898438 48.8125 49.84375 C 48.867188 49.820313 48.917969 49.808594 48.96875 49.78125 C 49.140625 49.695313 49.300781 49.574219 49.4375 49.4375 C 49.574219 49.300781 49.695313 49.140625 49.78125 48.96875 C 49.808594 48.917969 49.820313 48.867188 49.84375 48.8125 C 49.898438 48.675781 49.941406 48.550781 49.96875 48.40625 C 49.992188 48.273438 50 48.144531 50 48 L 50 22 C 50 21.476563 49.816406 20.941406 49.4375 20.5625 C 49.058594 20.183594 48.523438 20 48 20 Z M 20 22 L 48 22 L 48 26 L 20 26 Z M 25 35 L 30 35 C 30.601563 35 31 35.398438 31 36 L 31 42 C 31 42.601563 30.601563 43 30 43 L 25 43 C 24.398438 43 24 42.601563 24 42 L 24 36 C 24 35.398438 24.398438 35 25 35 Z M 38 35 L 43 35 C 43.601563 35 44 35.398438 44 36 L 44 42 C 44 42.601563 43.601563 43 43 43 L 38 43 C 37.398438 43 37 42.601563 37 42 L 37 36 C 37 35.398438 37.398438 35 38 35 Z "/>
</g>
</svg>