<svg id="change-lessons" xmlns="http://www.w3.org/2000/svg" xmlns:xlink="http://www.w3.org/1999/xlink" viewBox="0 0 50 50" version="1.1" width="50" height="50" style="fill: rgb(0, 0, 0);">
<g id="surface1">
<path style=" " d="M 10.402344 3 C 8.523438 3 7 4.523438 7 6.398438 L 7 24.597656 C 7 26.472656 8.523438 28 10.402344 28 L 28.597656 28 C 30.472656 28 32 26.472656 32 24.597656 L 32 6.398438 C 32 4.523438 30.472656 3 28.597656 3 Z M 34 18 L 34 20 L 43.597656 20 C 44.386719 20 45 20.613281 45 21.402344 L 45 39.597656 C 45 40.386719 44.386719 41 43.597656 41 L 25.402344 41 C 24.613281 41 24 40.386719 24 39.597656 L 24 30 L 22 30 L 22 39.597656 C 22 41.464844 23.535156 43 25.402344 43 L 43.597656 43 C 45.464844 43 47 41.464844 47 39.597656 L 47 21.402344 C 47 19.535156 45.464844 18 43.597656 18 Z M 3.984375 29.984375 C 3.433594 29.996094 2.992188 30.449219 3 31 L 3 40 C 3 41.644531 4.355469 43 6 43 L 15.585938 43 L 13.292969 45.292969 C 13.03125 45.542969 12.925781 45.917969 13.019531 46.265625 C 13.109375 46.617188 13.382813 46.890625 13.734375 46.980469 C 14.082031 47.074219 14.457031 46.96875 14.707031 46.707031 L 18.621094 42.796875 C 18.867188 42.605469 19.011719 42.3125 19.011719 42 C 19.011719 41.6875 18.867188 41.390625 18.617188 41.203125 L 14.707031 37.292969 C 14.519531 37.097656 14.261719 36.992188 13.988281 36.988281 C 13.582031 36.992188 13.21875 37.238281 13.0625 37.613281 C 12.910156 37.992188 13 38.421875 13.292969 38.707031 L 15.585938 41 L 6 41 C 5.433594 41 5 40.566406 5 40 L 5 31 C 5.003906 30.730469 4.898438 30.46875 4.707031 30.277344 C 4.515625 30.085938 4.253906 29.980469 3.984375 29.984375 Z "/>
</g>
</svg>