<svg id="kid" xmlns="http://www.w3.org/2000/svg" xmlns:xlink="http://www.w3.org/1999/xlink" viewBox="0 0 50 50" version="1.1" width="50" height="50" style="fill: rgb(0, 0, 0);">
<g id="surface1">
<path style=" " d="M 25 4 C 22.238281 4 20 6.238281 20 9 C 20 11.761719 22.238281 14 25 14 C 27.761719 14 30 11.761719 30 9 C 30 6.238281 27.761719 4 25 4 Z M 23.371094 16 C 22.0625 16 20.90625 16.585938 20.105469 17.492188 L 11.691406 25.261719 C 10.820313 26.070313 10.765625 27.433594 11.574219 28.308594 C 12.378906 29.179688 13.742188 29.234375 14.617188 28.425781 L 19 24.378906 L 19 30.5 L 18.183594 42.332031 C 18.082031 43.777344 19.226563 45 20.671875 45 C 21.984375 45 23.070313 43.984375 23.160156 42.675781 L 23.757813 34 L 26.242188 34 L 26.839844 42.675781 C 26.929688 43.984375 28.015625 45 29.328125 45 C 30.773438 45 31.917969 43.777344 31.816406 42.332031 L 31 30.488281 L 31 24.378906 L 35.382813 28.425781 C 36.257813 29.234375 37.621094 29.179688 38.425781 28.308594 C 39.234375 27.433594 39.179688 26.070313 38.308594 25.261719 L 29.894531 17.492188 C 29.09375 16.585938 27.9375 16 26.628906 16 Z "/>
</g>
</svg>