<svg id="tips" xmlns="http://www.w3.org/2000/svg" xmlns:xlink="http://www.w3.org/1999/xlink" viewBox="0 0 26 26" version="1.1" width="50" height="50" style="fill: rgb(0, 0, 0);">
<g id="surface1">
<path style=" " d="M 16.3125 0.125 C 16.257813 0.132813 16.207031 0.140625 16.15625 0.15625 C 15.964844 0.199219 15.792969 0.296875 15.65625 0.4375 L 12.84375 3.28125 C 12.65625 3.378906 12.503906 3.53125 12.40625 3.71875 L 9.71875 6.40625 C 9.578125 6.492188 9.460938 6.609375 9.375 6.75 C 9.375 6.761719 9.375 6.769531 9.375 6.78125 C 9.351563 6.800781 9.332031 6.820313 9.3125 6.84375 C 9.3125 6.855469 9.3125 6.863281 9.3125 6.875 C 9.300781 6.886719 9.292969 6.894531 9.28125 6.90625 L 5.90625 14.4375 L 3.21875 17.125 C 2.832031 17.515625 2.832031 18.140625 3.21875 18.53125 L 3.9375 19.25 L 0 23.1875 L 6.125 25.53125 L 8.1875 23.5 L 8.875 24.1875 C 9.0625 24.382813 9.324219 24.492188 9.59375 24.492188 C 9.863281 24.492188 10.125 24.382813 10.3125 24.1875 L 13.03125 21.46875 L 20.1875 18.25 C 20.21875 18.242188 20.25 18.230469 20.28125 18.21875 L 20.5 18.125 C 20.566406 18.101563 20.628906 18.070313 20.6875 18.03125 C 20.730469 18.003906 20.773438 17.972656 20.8125 17.9375 L 20.90625 17.875 C 20.980469 17.800781 21.042969 17.71875 21.09375 17.625 L 23.625 15.125 C 23.902344 15.023438 24.117188 14.808594 24.21875 14.53125 L 25.59375 13.15625 C 25.992188 12.757813 25.992188 12.117188 25.59375 11.71875 C 25.195313 11.320313 24.554688 11.320313 24.15625 11.71875 L 23.1875 12.6875 L 14.71875 4.1875 L 17.0625 1.84375 C 17.363281 1.554688 17.453125 1.105469 17.285156 0.722656 C 17.117188 0.339844 16.730469 0.101563 16.3125 0.125 Z M 13.3125 5.625 L 21.78125 14.09375 L 20.09375 15.78125 L 11.59375 7.3125 Z M 10.5 9.03125 L 18.34375 16.90625 L 12 19.75 C 11.894531 19.796875 11.800781 19.859375 11.71875 19.9375 L 9.59375 22.0625 L 5.34375 17.8125 L 7.46875 15.6875 C 7.558594 15.609375 7.632813 15.511719 7.6875 15.40625 Z "/>
</g>
</svg>